<svg width="100" height="100" viewBox="0 0 100 100" fill="none" xmlns="http://www.w3.org/2000/svg">
<g id="Group 8">
<path id="Vector 6" d="M67.4384 80.8942C65.4838 84.2157 60.1785 88.3676 51.5223 88.9212C42.8661 89.4747 35.4941 87.1843 30.5799 79.787C25.6021 72.294 30.5799 56.8133 30.5799 56.8133M30.5799 56.8133C35.5576 49.3991 39.5847 46.5478 48.73 43.5273M30.5799 56.8133C30.5799 56.8133 41.4485 66.7778 51.5223 66.7778C61.5961 66.7778 68.8561 55.1526 68.8561 55.1526C68.8561 55.1526 56.8492 42.1433 48.73 43.5273M30.5799 56.8133C30.5799 56.8133 26.4694 45.2293 28.6253 38.2683C30.456 32.3574 38.1192 25.5358 38.1192 25.5358C38.1192 25.5358 43.8091 30.1293 45.9591 34.1164C47.7799 37.4928 48.73 43.5273 48.73 43.5273M60.3908 34.1164C60.3908 34.1164 59.875 27.2694 62.3454 24.1519C65.0348 20.7581 72.677 20 72.677 20C72.677 20 74.0033 27.5114 71.2808 30.7949C68.4555 34.2023 60.3908 34.1164 60.3908 34.1164Z" stroke="#8FC936" stroke-width="7"/>
</g>
</svg>