<svg width="257" height="257" viewBox="0 0 257 257" fill="none" xmlns="http://www.w3.org/2000/svg">
<path d="M49.281 115.874C56.266 115.874 61.9372 121.671 61.9372 128.811C61.9372 135.951 56.266 141.749 49.281 141.749C42.296 141.749 36.6247 135.951 36.6247 128.811C36.6247 121.671 42.296 115.874 49.281 115.874Z" fill="#015343"/>
<path d="M89.281 114.95C96.266 114.95 101.937 120.748 101.937 127.888C101.937 135.028 96.266 140.825 89.281 140.825C82.296 140.825 76.6247 135.028 76.6247 127.888C76.6247 120.748 82.296 114.95 89.281 114.95Z" fill="#01705A"/>
<path d="M129.275 90.5105C136.26 90.5105 141.931 96.3078 141.931 103.448C141.931 110.588 136.26 116.385 129.275 116.385C122.29 116.385 116.619 110.588 116.619 103.448C116.619 96.3078 122.29 90.5105 129.275 90.5105Z" fill="#009276"/>
<path d="M169.281 76.7967C176.266 76.7967 181.937 82.594 181.937 89.7342C181.937 96.8744 176.266 102.672 169.281 102.672C162.296 102.672 156.625 96.8744 156.625 89.7342C156.625 82.594 162.296 76.7967 169.281 76.7967Z" fill="#00B995"/>
<path d="M209.281 101.217C216.266 101.217 221.937 107.014 221.937 114.154C221.937 121.295 216.266 127.092 209.281 127.092C202.296 127.092 196.625 121.295 196.625 114.154C196.625 107.014 202.296 101.217 209.281 101.217Z" fill="#00EBBD"/>
</svg>
